{
    "asset" : {
        "version" : "2.0",
        "generator" : "Khronos glTF Blender I/O v0.9.28"
    },
    "scene" : 0,
    "scenes" : [
        {
            "name" : "Scene",
            "nodes" : [
                0,
                1,
                2,
                3,
                4,
                5
            ]
        }
    ],
    "nodes" : [
        {
            "mesh" : 0,
            "name" : "Plane.002",
            "translation" : [
                -0.3110809326171875,
                -0.04207808896899223,
                -0.3096781373023987
            ],
            "rotation" : [
                0,
                0,
                -1,
                -1.6292068494294654e-07
            ],
            "scale" : [
                1.9310029745101929,
                1.9310029745101929,
                1.9310029745101929
            ]
        },
        {
            "mesh" : 1,
            "name" : "Plane.001",
            "translation" : [
                -0.3110809326171875,
                0.01696079969406128,
                -0.3096781373023987
            ],
            "scale" : [
                1.9310029745101929,
                1.9310029745101929,
                1.9310029745101929
            ]
        },
        {
            "mesh" : 2,
            "name" : "Plane",
            "translation" : [
                -0.2604960799217224,
                0,
                0.6067249178886414
            ],
            "scale" : [
                1.6468697786331177,
                1.1627675294876099,
                0.842985987663269
            ]
        },
        {
            "mesh" : 3,
            "name" : "Cube",
            "translation" : [
                -0.2562422752380371,
                0,
                2.486938953399658
            ],
            "scale" : [
                3.531562566757202,
                1.1705998182296753,
                0.29896867275238037
            ]
        },
        {
            "name" : "Lamp",
            "translation" : [
                5.39082145690918,
                -6.355839729309082,
                -0.8286940455436707
            ],
            "rotation" : [
                0.16907575726509094,
                0.7558803558349609,
                -0.27217137813568115,
                0.570947527885437
            ]
        },
        {
            "name" : "Camera",
            "translation" : [
                7.481131553649902,
                5.34366512298584,
                6.5076398849487305
            ],
            "rotation" : [
                0.483536034822464,
                0.33687159419059753,
                -0.20870360732078552,
                0.7804827094078064
            ]
        }
    ],
    "materials" : [
        {
            "name" : "Material.001",
            "pbrMetallicRoughness" : {
                "metallicFactor" : 0,
                "roughnessFactor" : 1
            },
            "emissiveFactor" : [
                0,
                0,
                0
            ]
        },
        {
            "name" : "Material",
            "pbrMetallicRoughness" : {
                "metallicFactor" : 1,
                "baseColorFactor" : [
                    0,
                    0,
                    0,
                    1
                ],
                "roughnessFactor" : 0
            },
            "emissiveFactor" : [
                0,
                0,
                0
            ]
        }
    ],
    "meshes" : [
        {
            "name" : "Plane.002",
            "primitives" : [
                {
                    "indices" : 2,
                    "attributes" : {
                        "POSITION" : 0,
                        "NORMAL" : 1
                    },
                    "material" : 0
                }
            ]
        },
        {
            "name" : "Plane.001",
            "primitives" : [
                {
                    "indices" : 2,
                    "attributes" : {
                        "POSITION" : 3,
                        "NORMAL" : 4
                    },
                    "material" : 0
                }
            ]
        },
        {
            "name" : "Plane",
            "primitives" : [
                {
                    "indices" : 7,
                    "attributes" : {
                        "POSITION" : 5,
                        "NORMAL" : 6
                    },
                    "material" : 1
                }
            ]
        },
        {
            "name" : "Cube",
            "primitives" : [
                {
                    "indices" : 10,
                    "attributes" : {
                        "POSITION" : 8,
                        "NORMAL" : 9
                    },
                    "material" : 1
                }
            ]
        }
    ],
    "accessors" : [
        {
            "bufferView" : 0,
            "count" : 4,
            "type" : "VEC3",
            "max" : [
                1,
                0,
                1
            ],
            "componentType" : 5126,
            "min" : [
                -1,
                0,
                -1
            ]
        },
        {
            "componentType" : 5126,
            "bufferView" : 1,
            "count" : 4,
            "type" : "VEC3"
        },
        {
            "componentType" : 5123,
            "bufferView" : 2,
            "count" : 6,
            "type" : "SCALAR"
        },
        {
            "bufferView" : 3,
            "count" : 4,
            "type" : "VEC3",
            "max" : [
                1,
                0,
                1
            ],
            "componentType" : 5126,
            "min" : [
                -1,
                0,
                -1
            ]
        },
        {
            "componentType" : 5126,
            "bufferView" : 4,
            "count" : 4,
            "type" : "VEC3"
        },
        {
            "bufferView" : 5,
            "count" : 446,
            "type" : "VEC3",
            "max" : [
                0.9815977811813354,
                0.1623842567205429,
                0.8935660123825073
            ],
            "componentType" : 5126,
            "min" : [
                -1,
                -0.15811099112033844,
                -0.6710659861564636
            ]
        },
        {
            "componentType" : 5126,
            "bufferView" : 6,
            "count" : 446,
            "type" : "VEC3"
        },
        {
            "componentType" : 5123,
            "bufferView" : 7,
            "count" : 828,
            "type" : "SCALAR"
        },
        {
            "bufferView" : 8,
            "count" : 120,
            "type" : "VEC3",
            "max" : [
                1.0000004768371582,
                1.000000238418579,
                2.797518253326416
            ],
            "componentType" : 5126,
            "min" : [
                -1.0034644603729248,
                -1,
                -21.232120513916016
            ]
        },
        {
            "componentType" : 5126,
            "bufferView" : 9,
            "count" : 120,
            "type" : "VEC3"
        },
        {
            "componentType" : 5123,
            "bufferView" : 10,
            "count" : 192,
            "type" : "SCALAR"
        }
    ],
    "bufferViews" : [
        {
            "byteLength" : 48,
            "buffer" : 0,
            "byteOffset" : 0
        },
        {
            "byteLength" : 48,
            "buffer" : 0,
            "byteOffset" : 48
        },
        {
            "byteLength" : 12,
            "buffer" : 0,
            "byteOffset" : 96
        },
        {
            "byteLength" : 48,
            "buffer" : 0,
            "byteOffset" : 108
        },
        {
            "byteLength" : 48,
            "buffer" : 0,
            "byteOffset" : 156
        },
        {
            "byteLength" : 5352,
            "buffer" : 0,
            "byteOffset" : 204
        },
        {
            "byteLength" : 5352,
            "buffer" : 0,
            "byteOffset" : 5556
        },
        {
            "byteLength" : 1656,
            "buffer" : 0,
            "byteOffset" : 10908
        },
        {
            "byteLength" : 1440,
            "buffer" : 0,
            "byteOffset" : 12564
        },
        {
            "byteLength" : 1440,
            "buffer" : 0,
            "byteOffset" : 14004
        },
        {
            "byteLength" : 384,
            "buffer" : 0,
            "byteOffset" : 15444
        }
    ],
    "buffers" : [
        {
            "uri" : "data:application/octet-stream;base64,",
            "byteLength" : 15828
        }
    ]
}
